<?xml version="1.0" standalone="no"?><!DOCTYPE svg PUBLIC "-//W3C//DTD SVG 1.1//EN" "http://www.w3.org/Graphics/SVG/1.1/DTD/svg11.dtd"><svg t="1584306006302" class="icon" viewBox="0 0 1024 1024" version="1.1" xmlns="http://www.w3.org/2000/svg" p-id="846" xmlns:xlink="http://www.w3.org/1999/xlink" width="200" height="200"><defs><style type="text/css"></style></defs><path d="M510 1024C312.08 1024 140.144 945.216 140.144 826.984c0-90.024 102.536-164.128 261.232-188.784a39.872 39.872 0 0 1 41.016 20.104 4351.712 4351.712 0 0 0 67.6 117.712 4360.4 4360.4 0 0 0 67.624-117.712 39.896 39.896 0 0 1 41.008-20.104c158.696 24.656 261.232 98.76 261.232 188.776C879.856 946.08 706.224 1024 510 1024z" fill="#65C6BB" p-id="847"></path><path d="M618.624 638.2a39.888 39.888 0 0 0-41.016 20.104 4362.416 4362.416 0 0 1-67.608 117.712V1024c197.92 0 369.856-78.776 369.856-197.016 0-90.024-102.544-164.128-261.232-188.784z" fill="#57BDB7" p-id="848"></path><path d="M510 0C345.736 0 212.104 133.632 212.104 297.896c0 134.184 194.784 465.496 264.088 576.144a39.872 39.872 0 0 0 67.6 0c70.616-112.72 264.096-442.272 264.096-576.144C807.888 133.632 674.256 0 510 0z m0 445.968c-81.648 0-148.072-66.416-148.072-148.064S428.352 149.84 510 149.84s148.064 66.416 148.064 148.064-66.424 148.064-148.064 148.064z" fill="#FF5E5B" p-id="849"></path><path d="M510 0v149.84c81.648 0 148.064 66.416 148.064 148.064S591.648 445.976 510 445.976v446.8a39.872 39.872 0 0 0 33.8-18.728c70.608-112.72 264.096-442.28 264.096-576.152C807.896 133.632 674.256 0 510 0z" fill="#FF423D" p-id="850"></path></svg>